<?xml version="1.0" standalone="no"?>
<svg viewBox="0 0 200 200" xmlns="http://www.w3.org/2000/svg">
  <path fill="#9EF0F0" d="M20.2,-37.3C32.3,-28,52.5,-35,52.6,-31.5C52.7,-28,32.8,-14,28.5,-2.5C24.2,9,35.5,18,38.5,26.9C41.4,35.8,36.1,44.5,28.3,46.2C20.5,47.9,10.2,42.5,-0.4,43.2C-11,43.8,-22,50.5,-26.7,47C-31.3,43.5,-29.7,29.8,-39.4,20.3C-49.1,10.8,-70.2,5.4,-68.8,0.8C-67.4,-3.8,-43.6,-7.6,-34.8,-18.7C-26,-29.8,-32.3,-48.3,-29,-62.7C-25.7,-77.1,-12.8,-87.5,-4.4,-79.9C4,-72.2,8.1,-46.6,20.2,-37.3Z" transform="translate(100 100)" />
</svg>
